<svg width="11" height="10" viewBox="0 0 11 10" fill="none" xmlns="http://www.w3.org/2000/svg">
<path fill-rule="evenodd" clip-rule="evenodd" d="M3.40273 0.402728C3.66059 0.144866 4.01033 0 4.375 0H6.375C6.73967 0 7.08941 0.144866 7.34727 0.402728C7.60513 0.660591 7.75 1.01033 7.75 1.375V1.99999H9.375C10.1344 1.99999 10.75 2.6156 10.75 3.37499V8.37499C10.75 9.13438 10.1344 9.74999 9.375 9.74999H7.37756C7.37671 9.75 7.37585 9.75 7.375 9.75C7.37414 9.75 7.37329 9.75 7.37244 9.74999H3.37756C3.37671 9.75 3.37586 9.75 3.375 9.75C3.37414 9.75 3.37329 9.75 3.37244 9.74999H1.375C0.615608 9.74999 0 9.13438 0 8.37499V3.37499C0 2.6156 0.615608 1.99999 1.375 1.99999H3V1.375C3 1.01033 3.14487 0.660591 3.40273 0.402728ZM3 2.74999H1.375C1.02982 2.74999 0.75 3.02981 0.75 3.37499V8.37499C0.75 8.72017 1.02982 8.99999 1.375 8.99999H3V2.74999ZM3.75 8.99999V2.74999H7V8.99999H3.75ZM7.75 8.99999H9.375C9.72018 8.99999 10 8.72017 10 8.37499V3.37499C10 3.02981 9.72018 2.74999 9.375 2.74999H7.75V8.99999ZM7 1.99999H3.75V1.375C3.75 1.20924 3.81585 1.05027 3.93306 0.933058C4.05027 0.815848 4.20924 0.75 4.375 0.75H6.375C6.54076 0.75 6.69973 0.815848 6.81694 0.933058C6.93415 1.05027 7 1.20924 7 1.375V1.99999Z" fill="white"/>
</svg>
