<svg width="64" height="64" viewBox="0 0 64 64" fill="none" xmlns="http://www.w3.org/2000/svg">
<g clip-path="url(#clip0_2286_36425)">
<path d="M55.0625 33.4106V17.1055C55.0625 15.9832 54.1558 15.0787 53.0439 15.0787H43.0654C42.5477 15.0787 42.1279 14.659 42.1279 14.1412C42.1279 13.6235 42.5477 13.2037 43.0654 13.2037H53.0439C55.1954 13.2037 56.9375 14.9517 56.9375 17.1055V33.4106C56.9375 35.5636 55.1962 37.3142 53.0439 37.3142H31.6283L28.5903 40.3607L28.59 40.3611C28.1693 40.7824 27.5985 41.0195 27.0028 41.0195C25.7609 41.0195 24.7573 40.0112 24.7573 38.7723V37.3142H23.8473C21.695 37.3142 19.9537 35.5636 19.9537 33.4106V25.259C19.9537 24.7413 20.3735 24.3215 20.8912 24.3215C21.409 24.3215 21.8287 24.7413 21.8287 25.259V33.4106C21.8287 34.5337 22.7362 35.4392 23.8473 35.4392H25.6948C26.2126 35.4392 26.6323 35.859 26.6323 36.3767V38.7723C26.6323 38.9789 26.7996 39.1445 27.0028 39.1445C27.0999 39.1445 27.1936 39.1059 27.2631 39.0363L30.5754 35.7147C30.7513 35.5384 30.9902 35.4392 31.2393 35.4392H53.0439C54.155 35.4392 55.0625 34.5337 55.0625 33.4106ZM27.5435 18.7622C28.0612 18.7622 28.4809 19.182 28.481 19.6997C28.481 20.2175 28.0612 20.6372 27.5435 20.6372H13.5C12.9822 20.6372 12.5625 20.2175 12.5625 19.6997C12.5625 19.182 12.9823 18.7622 13.5 18.7622H27.5435ZM37.5219 13.2034C38.0396 13.2034 38.4593 13.6231 38.4594 14.1409C38.4594 14.6586 38.0396 15.0784 37.5219 15.0784H13.5C12.9822 15.0784 12.5625 14.6586 12.5625 14.1409C12.5625 13.6231 12.9822 13.2034 13.5 13.2034H37.5219ZM17.1957 7.64453L17.2439 7.64575C17.7392 7.67087 18.1332 8.08045 18.1332 8.58203C18.1332 9.08361 17.7392 9.49319 17.2439 9.51831L17.1957 9.51953H13.5C12.9822 9.51953 12.5625 9.0998 12.5625 8.58203C12.5625 8.06426 12.9822 7.64453 13.5 7.64453H17.1957ZM37.5219 7.64453C38.0396 7.64453 38.4594 8.06426 38.4594 8.58203C38.4594 9.0998 38.0396 9.51953 37.5219 9.51953H23.1086C22.5909 9.51952 22.1711 9.09979 22.1711 8.58203C22.1711 8.06427 22.5909 7.64455 23.1086 7.64453H37.5219Z" fill="white"/>
<path d="M7.0625 22.3026V6.0387C7.06253 3.8865 8.80781 2.14455 10.9574 2.14453H14.0411C14.5589 2.14453 14.9786 2.56426 14.9786 3.08203C14.9786 3.5998 14.5589 4.01953 14.0411 4.01953H10.9574C9.84217 4.01955 8.93753 4.92321 8.9375 6.0387V22.3026C8.93752 23.4189 9.84292 24.3236 10.9574 24.3236H32.7722L32.8186 24.3248C33.0503 24.3363 33.2701 24.4334 33.4349 24.5981L36.7493 27.9116C36.818 27.9803 36.9124 28.0195 37.0106 28.0195C37.2168 28.0195 37.3817 27.8527 37.3817 27.6506V25.2611C37.3817 24.7433 37.8015 24.3236 38.3192 24.3236H40.1676C41.2821 24.3236 42.1875 23.4189 42.1875 22.3026V6.0387C42.1875 4.92321 41.2828 4.01955 40.1676 4.01953H20.4464C19.9287 4.0195 19.5089 3.59978 19.5089 3.08203C19.5089 2.56428 19.9287 2.14456 20.4464 2.14453H40.1676C42.3172 2.14455 44.0625 3.8865 44.0625 6.0387V22.3026C44.0625 24.4541 42.318 26.1986 40.1676 26.1986H39.2567V27.6506C39.2567 28.8903 38.2502 29.8945 37.0106 29.8945C36.4171 29.8945 35.8453 29.6593 35.4236 29.2377L32.3839 26.1986H10.9574C8.80705 26.1986 7.06252 24.4541 7.0625 22.3026Z" fill="white"/>
<path d="M27.9564 49.8625C27.9564 47.807 26.2901 46.1407 24.2346 46.1406C22.1791 46.1406 20.5127 47.807 20.5127 49.8625C20.5127 51.9181 22.1791 53.5844 24.2346 53.5844C26.2901 53.5843 27.9564 51.918 27.9564 49.8625ZM29.8314 49.8625C29.8314 52.9536 27.3256 55.4593 24.2346 55.4594C21.1436 55.4594 18.6377 52.9536 18.6377 49.8625C18.6377 46.7715 21.1436 44.2656 24.2346 44.2656C27.3257 44.2657 29.8314 46.7715 29.8314 49.8625Z" fill="white"/>
<path d="M31.0624 58.4043C31.0624 56.7777 29.7437 55.459 28.1171 55.459H20.3514C18.7249 55.459 17.4062 56.7777 17.4062 58.4043V62.1261H31.0624V58.4043ZM32.9374 63.0636C32.9374 63.5814 32.5176 64.0011 31.9999 64.0011H16.4688C15.951 64.0011 15.5312 63.5814 15.5312 63.0636V58.4043C15.5312 55.7422 17.6893 53.584 20.3514 53.584H28.1171C30.7792 53.584 32.9374 55.7422 32.9374 58.4043V63.0636Z" fill="white"/>
<path d="M59.0189 49.8625C59.0189 47.807 57.3526 46.1407 55.2971 46.1406C53.2416 46.1406 51.5752 47.807 51.5752 49.8625C51.5752 51.9181 53.2416 53.5844 55.2971 53.5844C57.3526 53.5843 59.0189 51.918 59.0189 49.8625ZM60.8939 49.8625C60.8939 52.9536 58.3881 55.4593 55.2971 55.4594C52.2061 55.4594 49.7002 52.9536 49.7002 49.8625C49.7002 46.7715 52.2061 44.2656 55.2971 44.2656C58.3882 44.2657 60.8939 46.7715 60.8939 49.8625Z" fill="white"/>
<path d="M62.125 58.4053C62.125 56.7779 60.8058 55.459 59.1801 55.459H51.4137C49.7879 55.459 48.4688 56.7779 48.4688 58.4053V62.1265H54.5375C55.0552 62.1265 55.475 62.5462 55.475 63.064C55.475 63.5817 55.0552 64.0015 54.5375 64.0015H47.5312C47.0135 64.0015 46.5938 63.5817 46.5938 63.064V58.4053C46.5938 55.7427 48.752 53.584 51.4137 53.584H59.1801C61.8417 53.584 64 55.7427 64 58.4053V63.064C64 63.5817 63.5803 64.0015 63.0625 64.0015H58.9125C58.3947 64.0015 57.975 63.5817 57.975 63.064C57.975 62.5462 58.3947 62.1265 58.9125 62.1265H62.125V58.4053Z" fill="white"/>
<path d="M43.4877 49.8625C43.4877 47.807 41.8214 46.1407 39.7659 46.1406C37.7103 46.1406 36.0439 47.807 36.0439 49.8625C36.044 51.9181 37.7104 53.5844 39.7659 53.5844C41.8214 53.5843 43.4876 51.918 43.4877 49.8625ZM45.3627 49.8625C45.3626 52.9536 42.8569 55.4593 39.7659 55.4594C36.6748 55.4594 34.169 52.9536 34.1689 49.8625C34.1689 46.7715 36.6748 44.2656 39.7659 44.2656C42.8569 44.2657 45.3627 46.7715 45.3627 49.8625Z" fill="white"/>
<path d="M46.5936 58.4043C46.5936 56.7777 45.275 55.459 43.6484 55.459H35.8828C34.2562 55.459 32.9375 56.7777 32.9375 58.4043V62.1261H46.5936V58.4043ZM48.4686 63.0636C48.4686 63.5814 48.0489 64.0011 47.5311 64.0011H32C31.4822 64.0011 31.0625 63.5814 31.0625 63.0636V58.4043C31.0625 55.7422 33.2207 53.584 35.8828 53.584H43.6484C46.3106 53.584 48.4686 55.7422 48.4686 58.4043V63.0636Z" fill="white"/>
<path d="M12.4252 49.8625C12.4252 47.807 10.7589 46.1407 8.70337 46.1406C6.64783 46.1406 4.98145 47.807 4.98145 49.8625C4.98147 51.9181 6.64785 53.5844 8.70337 53.5844C10.7589 53.5843 12.4251 51.918 12.4252 49.8625ZM14.3002 49.8625C14.3001 52.9536 11.7944 55.4593 8.70337 55.4594C5.61232 55.4594 3.10647 52.9536 3.10645 49.8625C3.10645 46.7715 5.6123 44.2656 8.70337 44.2656C11.7944 44.2657 14.3002 46.7715 14.3002 49.8625Z" fill="white"/>
<path d="M15.5312 58.4053C15.5312 56.7779 14.2121 55.459 12.5863 55.459H4.81995C3.19418 55.459 1.875 56.7779 1.875 58.4053V62.1265H5.75745C6.27521 62.1265 6.69494 62.5462 6.69495 63.064C6.69495 63.5817 6.27521 64.0015 5.75745 64.0015H0.9375C0.419733 64.0015 0 63.5817 0 63.064V58.4053C0 55.7427 2.15826 53.584 4.81995 53.584H12.5863C15.248 53.584 17.4062 55.7427 17.4062 58.4053V63.064C17.4062 63.5817 16.9865 64.0015 16.4688 64.0015H10.1324C9.6147 64.0014 9.19495 63.5817 9.19495 63.064C9.19496 62.5462 9.61471 62.1265 10.1324 62.1265H15.5312V58.4053Z" fill="white"/>
</g>
<defs>
<clipPath id="clip0_2286_36425">
<rect width="64" height="64" fill="white"/>
</clipPath>
</defs>
</svg>
