<svg width="30" height="30" viewBox="0 0 30 30" fill="none" xmlns="http://www.w3.org/2000/svg">
<path fill-rule="evenodd" clip-rule="evenodd" d="M4.125 2.25C3.08947 2.25 2.25 3.08947 2.25 4.125V25.125C2.25 26.0165 2.87218 26.7627 3.706 26.953L19.8295 10.8295C20.2689 10.3901 20.9812 10.3901 21.4205 10.8295L27 16.409V4.125C27 3.08947 26.1605 2.25 25.125 2.25H4.125ZM29.25 19.1173V4.125C29.25 1.84683 27.4032 0 25.125 0H4.125C1.84683 0 0 1.84683 0 4.125V25.125C0 27.4032 1.84683 29.25 4.125 29.25H25.125C27.4032 29.25 29.25 27.4032 29.25 25.125V19.1326C29.25 19.1275 29.25 19.1224 29.25 19.1173ZM27 19.5909L20.625 13.216L6.84099 27H25.125C26.1605 27 27 26.1605 27 25.125V19.5909ZM9.37498 8.24998C8.75366 8.24998 8.24998 8.75366 8.24998 9.37498C8.24998 9.9963 8.75366 10.5 9.37498 10.5C9.9963 10.5 10.5 9.9963 10.5 9.37498C10.5 8.75366 9.9963 8.24998 9.37498 8.24998ZM5.99998 9.37498C5.99998 7.51101 7.51101 5.99998 9.37498 5.99998C11.2389 5.99998 12.75 7.51101 12.75 9.37498C12.75 11.2389 11.2389 12.75 9.37498 12.75C7.51101 12.75 5.99998 11.2389 5.99998 9.37498Z" fill="white"/>
</svg>
