<svg width="36" height="36" viewBox="0 0 36 36" fill="none" xmlns="http://www.w3.org/2000/svg">
<path d="M32 34V36H4V34H32ZM34 32V4C34 2.90457 33.0954 2 32 2H4C2.90457 2 2 2.90457 2 4V32C2 33.0954 2.90457 34 4 34V36C1.8 36 0 34.2 0 32V4C0 1.8 1.8 0 4 0H32C34.2 0 36 1.8 36 4V32C36 34.2 34.2 36 32 36V34C33.0954 34 34 33.0954 34 32Z" fill="white"/>
<path d="M11.8662 12.0039C13.5613 12.0871 14.4998 13.4372 14.5 14.5996V15H9.5V21H11.5V18H14.5V21.4004L14.4883 21.6602C14.3802 22.8599 13.5256 23.8587 12.1924 23.9863L11.9004 24H9.09961C7.59984 23.9998 6.62744 22.7694 6.51172 21.627L6.5 21.4004V14.7998C6.50009 13.4 7.49991 12.0002 9.09961 12H11.7002L11.8662 12.0039ZM20.5 12V24H17.5V12H20.5ZM29.5 12V15H26.5V17H29.5V20H26.5V24H23.5V12H29.5Z" fill="white"/>
</svg>
