<svg width="12" height="12" viewBox="0 0 12 12" fill="none" xmlns="http://www.w3.org/2000/svg">
<path fill-rule="evenodd" clip-rule="evenodd" d="M6 0.875C4.90598 0.875 3.85677 1.3096 3.08318 2.08318C2.3096 2.85677 1.875 3.90598 1.875 5C1.875 6.59927 2.91215 8.13284 4.02223 9.30459C4.5696 9.88238 5.11825 10.355 5.53047 10.6832C5.72162 10.8354 5.88278 10.9561 6 11.0413C6.11722 10.9561 6.27838 10.8354 6.46953 10.6832C6.88175 10.355 7.4304 9.88238 7.97777 9.30459C9.08785 8.13284 10.125 6.59927 10.125 5C10.125 3.90598 9.6904 2.85677 8.91682 2.08318C8.14323 1.3096 7.09402 0.875 6 0.875ZM6 11.5C5.79199 11.812 5.79189 11.812 5.79177 11.8119L5.79051 11.811L5.7874 11.8089L5.77639 11.8015C5.76696 11.7951 5.75339 11.7858 5.73595 11.7737C5.70107 11.7496 5.65071 11.7142 5.58708 11.6683C5.45985 11.5764 5.27934 11.442 5.06328 11.2699C4.63175 10.9263 4.0554 10.4301 3.47777 9.8204C2.33785 8.61716 1.125 6.90073 1.125 5C1.125 3.70707 1.63861 2.46709 2.55285 1.55285C3.46709 0.638614 4.70707 0.125 6 0.125C7.29293 0.125 8.53291 0.638614 9.44715 1.55285C10.3614 2.46709 10.875 3.70707 10.875 5C10.875 6.90073 9.66215 8.61716 8.52223 9.8204C7.9446 10.4301 7.36825 10.9263 6.93672 11.2699C6.72066 11.442 6.54015 11.5764 6.41292 11.6683C6.34929 11.7142 6.29893 11.7496 6.26405 11.7737C6.24661 11.7858 6.23304 11.7951 6.22361 11.8015L6.2126 11.8089L6.20949 11.811L6.20855 11.8117C6.20843 11.8117 6.20801 11.812 6 11.5ZM6 11.5L6.20801 11.812C6.08205 11.896 5.91773 11.8959 5.79177 11.8119L6 11.5ZM6 3.875C5.37868 3.875 4.875 4.37868 4.875 5C4.875 5.62132 5.37868 6.125 6 6.125C6.62132 6.125 7.125 5.62132 7.125 5C7.125 4.37868 6.62132 3.875 6 3.875ZM4.125 5C4.125 3.96447 4.96447 3.125 6 3.125C7.03553 3.125 7.875 3.96447 7.875 5C7.875 6.03553 7.03553 6.875 6 6.875C4.96447 6.875 4.125 6.03553 4.125 5Z" fill="white"/>
</svg>
