<svg width="24" height="24" viewBox="0 0 24 24" fill="none" xmlns="http://www.w3.org/2000/svg">
<g clip-path="url(#clip0_2697_38206)">
<path d="M23.7 22.3L17.8 16.4C17.8 16.3 17.7 16.3 17.7 16.2L17.6 16.1L9.7 8.3L1.7 0.3C1.3 -0.1 0.7 -0.1 0.3 0.3C-0.1 0.7 -0.1 1.3 0.3 1.7L8 9.4V12C8 13.1 8.4 14.1 9.2 14.8C9.9 15.6 10.9 16 12 16C12.7 16 13.4 15.8 14 15.4L15.5 16.9C14.5 17.6 13.4 18 12.2 18C12.1 18 12.1 18 12 18C11.9 18 11.9 18 11.8 18C10.3 18 8.9 17.4 7.8 16.3C6.6 15.2 6 13.6 6 12V10C6 9.4 5.6 9 5 9C4.4 9 4 9.4 4 10V12C4 14.2 4.9 16.3 6.4 17.8C7.7 19.1 9.3 19.8 11 20V22H8C7.4 22 7 22.4 7 23C7 23.6 7.4 24 8 24H16C16.6 24 17 23.6 17 23C17 22.4 16.6 22 16 22H13V20C14.4 19.8 15.8 19.3 16.9 18.4L22.3 23.8C22.5 24 22.8 24.1 23 24.1C23.2 24.1 23.5 24 23.7 23.8C24.1 23.3 24.1 22.7 23.7 22.3ZM12 14C11.5 14 11 13.8 10.6 13.4C10.2 13 10 12.5 10 12V11.4L12.5 13.9C12.3 14 12.2 14 12 14Z" fill="white"/>
<path d="M8.9 4.4C9.4 4.5 9.9 4.1 10 3.6C10.2 2.7 11 2 12 2C12.5 2 13 2.2 13.4 2.6C13.8 3 14 3.5 14 4V9.3C14 9.9 14.4 10.3 15 10.3C15.6 10.3 16 9.9 16 9.3V4C16 2.9 15.6 1.9 14.8 1.2C14.1 0.4 13.1 0 12 0C10.1 0 8.5 1.3 8.1 3.2C8 3.7 8.3 4.3 8.9 4.4Z" fill="white"/>
<path d="M18.7 14.2C18.8 14.2 18.8 14.2 18.9 14.2C19.4 14.2 19.8 13.9 19.9 13.4C20 12.9 20 12.5 20 12V10C20 9.4 19.6 9 19 9C18.4 9 18 9.4 18 10V12C18 12.4 18 12.7 17.9 13.1C17.8 13.6 18.2 14.1 18.7 14.2Z" fill="white"/>
</g>
<defs>
<clipPath id="clip0_2697_38206">
<rect width="24" height="24" fill="white"/>
</clipPath>
</defs>
</svg>
