<svg width="36" height="24" viewBox="0 0 36 24" fill="none" xmlns="http://www.w3.org/2000/svg">
<path fill-rule="evenodd" clip-rule="evenodd" d="M4.125 2.25C3.08947 2.25 2.25 3.08947 2.25 4.125V19.125C2.25 20.1605 3.08947 21 4.125 21H20.625C21.6605 21 22.5 20.1605 22.5 19.125V4.125C22.5 3.08947 21.6605 2.25 20.625 2.25H4.125ZM24.75 9.43887V4.125C24.75 1.84683 22.9032 0 20.625 0H4.125C1.84683 0 0 1.84683 0 4.125V19.125C0 21.4032 1.84683 23.25 4.125 23.25H20.625C22.9032 23.25 24.75 21.4032 24.75 19.125V13.811L33.4711 20.0404C33.814 20.2853 34.2651 20.3181 34.6398 20.1253C35.0145 19.9324 35.25 19.5464 35.25 19.125V4.12495C35.25 3.70354 35.0145 3.31747 34.6398 3.12464C34.2651 2.93181 33.814 2.96456 33.4711 3.2095L24.75 9.43887ZM25.5605 11.625L33 16.9389V6.31104L25.5605 11.625Z" fill="white"/>
</svg>
