<svg width="24" height="24" viewBox="0 0 24 24" fill="none" xmlns="http://www.w3.org/2000/svg">
<path fill-rule="evenodd" clip-rule="evenodd" d="M0.292893 0.292893C0.683417 -0.0976311 1.31658 -0.0976311 1.70711 0.292893L23.7071 22.2929C24.0976 22.6834 24.0976 23.3166 23.7071 23.7071C23.3166 24.0976 22.6834 24.0976 22.2929 23.7071L16.7605 18.1747C16.6114 18.5249 16.3957 18.847 16.1213 19.1214C15.5587 19.684 14.7957 20 14 20H3C2.20435 20 1.44129 19.684 0.87868 19.1214C0.316071 18.5587 1.49012e-08 17.7957 1.49012e-08 17V7.00003C1.49012e-08 6.20438 0.31607 5.44132 0.87868 4.87871C1.34883 4.40856 1.95896 4.11058 2.61112 4.02533L0.292893 1.70711C-0.0976311 1.31658 -0.0976311 0.683417 0.292893 0.292893ZM4.58579 6.00003H3C2.73478 6.00003 2.48043 6.10539 2.29289 6.29292C2.10536 6.48046 2 6.73482 2 7.00003V17C2 17.2653 2.10536 17.5196 2.29289 17.7071C2.48043 17.8947 2.73478 18 3 18H14C14.2652 18 14.5196 17.8947 14.7071 17.7071C14.8946 17.5196 15 17.2652 15 17V16.4142M14 6.00003H10.66C10.1077 6.00003 9.66 5.55232 9.66 5.00003C9.66 4.44775 10.1077 4.00003 10.66 4.00003H14C14.7956 4.00003 15.5587 4.3161 16.1213 4.87871C16.6839 5.44132 17 6.20438 17 7.00003V9.92582L17.1045 10.0303L22.4139 6.18978C22.7183 5.96961 23.1204 5.93861 23.4549 6.1095C23.7895 6.2804 24 6.62437 24 7.00003V17C24 17.5523 23.5523 18 23 18C22.4477 18 22 17.5523 22 17V8.95755L17.5861 12.1503C17.1882 12.4381 16.6402 12.3944 16.2929 12.0471L15.2929 11.0471C15.1054 10.8596 15 10.6052 15 10.34V7.00003C15 6.73482 14.8946 6.48046 14.7071 6.29292C14.5196 6.10539 14.2652 6.00003 14 6.00003Z" fill="white"/>
</svg>
